<svg id="visual" viewBox="0 0 960 300" width="960" height="300" xmlns="http://www.w3.org/2000/svg" xmlns:xlink="http://www.w3.org/1999/xlink" version="1.1"><rect x="0" y="0" width="960" height="300" fill="#DFF5F2"></rect><path d="M0 204L16 200.2C32 196.3 64 188.7 96 185C128 181.3 160 181.7 192 182C224 182.3 256 182.7 288 188C320 193.3 352 203.7 384 204.2C416 204.7 448 195.3 480 194.5C512 193.7 544 201.3 576 206.8C608 212.3 640 215.7 672 214C704 212.3 736 205.7 768 198.5C800 191.3 832 183.7 864 187C896 190.3 928 204.7 944 211.8L960 219L960 301L944 301C928 301 896 301 864 301C832 301 800 301 768 301C736 301 704 301 672 301C640 301 608 301 576 301C544 301 512 301 480 301C448 301 416 301 384 301C352 301 320 301 288 301C256 301 224 301 192 301C160 301 128 301 96 301C64 301 32 301 16 301L0 301Z" fill="#87dfd6"></path><path d="M0 197L16 198.3C32 199.7 64 202.3 96 205.2C128 208 160 211 192 210.8C224 210.7 256 207.3 288 208.5C320 209.7 352 215.3 384 218.2C416 221 448 221 480 218.2C512 215.3 544 209.7 576 206.8C608 204 640 204 672 203.7C704 203.3 736 202.7 768 208.5C800 214.3 832 226.7 864 232.3C896 238 928 237 944 236.5L960 236L960 301L944 301C928 301 896 301 864 301C832 301 800 301 768 301C736 301 704 301 672 301C640 301 608 301 576 301C544 301 512 301 480 301C448 301 416 301 384 301C352 301 320 301 288 301C256 301 224 301 192 301C160 301 128 301 96 301C64 301 32 301 16 301L0 301Z" fill="#72cbc6"></path><path d="M0 246L16 244.8C32 243.7 64 241.3 96 241.7C128 242 160 245 192 242.5C224 240 256 232 288 227.2C320 222.3 352 220.7 384 224.8C416 229 448 239 480 239.2C512 239.3 544 229.7 576 225.3C608 221 640 222 672 226.5C704 231 736 239 768 243.3C800 247.7 832 248.3 864 249C896 249.7 928 250.3 944 250.7L960 251L960 301L944 301C928 301 896 301 864 301C832 301 800 301 768 301C736 301 704 301 672 301C640 301 608 301 576 301C544 301 512 301 480 301C448 301 416 301 384 301C352 301 320 301 288 301C256 301 224 301 192 301C160 301 128 301 96 301C64 301 32 301 16 301L0 301Z" fill="#5cb8b6"></path><path d="M0 248L16 250C32 252 64 256 96 255.8C128 255.7 160 251.3 192 249C224 246.7 256 246.3 288 245.8C320 245.3 352 244.7 384 245.7C416 246.7 448 249.3 480 253.3C512 257.3 544 262.7 576 265.3C608 268 640 268 672 268C704 268 736 268 768 266.3C800 264.7 832 261.3 864 259.7C896 258 928 258 944 258L960 258L960 301L944 301C928 301 896 301 864 301C832 301 800 301 768 301C736 301 704 301 672 301C640 301 608 301 576 301C544 301 512 301 480 301C448 301 416 301 384 301C352 301 320 301 288 301C256 301 224 301 192 301C160 301 128 301 96 301C64 301 32 301 16 301L0 301Z" fill="#46a5a6"></path><path d="M0 269L16 268.8C32 268.7 64 268.3 96 267.5C128 266.7 160 265.3 192 267.2C224 269 256 274 288 276.3C320 278.7 352 278.3 384 278.2C416 278 448 278 480 275.7C512 273.3 544 268.7 576 267.7C608 266.7 640 269.3 672 269.5C704 269.7 736 267.3 768 267C800 266.7 832 268.3 864 269.2C896 270 928 270 944 270L960 270L960 301L944 301C928 301 896 301 864 301C832 301 800 301 768 301C736 301 704 301 672 301C640 301 608 301 576 301C544 301 512 301 480 301C448 301 416 301 384 301C352 301 320 301 288 301C256 301 224 301 192 301C160 301 128 301 96 301C64 301 32 301 16 301L0 301Z" fill="#2f9296"></path></svg>