<svg id="visual" viewBox="0 0 960 300" width="960" height="300" xmlns="http://www.w3.org/2000/svg" xmlns:xlink="http://www.w3.org/1999/xlink" version="1.1"><rect x="0" y="0" width="960" height="300" fill="#DFF5F2"></rect><path d="M0 83L12.3 81.5C24.7 80 49.3 77 74 78.5C98.7 80 123.3 86 148 89.5C172.7 93 197.3 94 221.8 93.8C246.3 93.7 270.7 92.3 295.2 89.8C319.7 87.3 344.3 83.7 369 80.7C393.7 77.7 418.3 75.3 443 74.3C467.7 73.3 492.3 73.7 517 74.3C541.7 75 566.3 76 591 80C615.7 84 640.3 91 664.8 90.3C689.3 89.7 713.7 81.3 738.2 80.7C762.7 80 787.3 87 812 90.2C836.7 93.3 861.3 92.7 886 93.3C910.7 94 935.3 96 947.7 97L960 98L960 0L947.7 0C935.3 0 910.7 0 886 0C861.3 0 836.7 0 812 0C787.3 0 762.7 0 738.2 0C713.7 0 689.3 0 664.8 0C640.3 0 615.7 0 591 0C566.3 0 541.7 0 517 0C492.3 0 467.7 0 443 0C418.3 0 393.7 0 369 0C344.3 0 319.7 0 295.2 0C270.7 0 246.3 0 221.8 0C197.3 0 172.7 0 148 0C123.3 0 98.7 0 74 0C49.3 0 24.7 0 12.3 0L0 0Z" fill="#87dfd6"></path><path d="M0 59L12.3 59.3C24.7 59.7 49.3 60.3 74 63.7C98.7 67 123.3 73 148 74.2C172.7 75.3 197.3 71.7 221.8 67C246.3 62.3 270.7 56.7 295.2 59.2C319.7 61.7 344.3 72.3 369 72.7C393.7 73 418.3 63 443 60.2C467.7 57.3 492.3 61.7 517 64.8C541.7 68 566.3 70 591 72.5C615.7 75 640.3 78 664.8 76.5C689.3 75 713.7 69 738.2 66.2C762.7 63.3 787.3 63.7 812 65.2C836.7 66.7 861.3 69.3 886 70.5C910.7 71.7 935.3 71.3 947.7 71.2L960 71L960 0L947.7 0C935.3 0 910.7 0 886 0C861.3 0 836.7 0 812 0C787.3 0 762.7 0 738.2 0C713.7 0 689.3 0 664.8 0C640.3 0 615.7 0 591 0C566.3 0 541.7 0 517 0C492.3 0 467.7 0 443 0C418.3 0 393.7 0 369 0C344.3 0 319.7 0 295.2 0C270.7 0 246.3 0 221.8 0C197.3 0 172.7 0 148 0C123.3 0 98.7 0 74 0C49.3 0 24.7 0 12.3 0L0 0Z" fill="#72cbc6"></path><path d="M0 61L12.3 57.7C24.7 54.3 49.3 47.7 74 44C98.7 40.3 123.3 39.7 148 40.3C172.7 41 197.3 43 221.8 47.3C246.3 51.7 270.7 58.3 295.2 59.7C319.7 61 344.3 57 369 53.5C393.7 50 418.3 47 443 47.8C467.7 48.7 492.3 53.3 517 53.7C541.7 54 566.3 50 591 47.8C615.7 45.7 640.3 45.3 664.8 47.7C689.3 50 713.7 55 738.2 56.8C762.7 58.7 787.3 57.3 812 58C836.7 58.7 861.3 61.3 886 59C910.7 56.7 935.3 49.3 947.7 45.7L960 42L960 0L947.7 0C935.3 0 910.7 0 886 0C861.3 0 836.7 0 812 0C787.3 0 762.7 0 738.2 0C713.7 0 689.3 0 664.8 0C640.3 0 615.7 0 591 0C566.3 0 541.7 0 517 0C492.3 0 467.7 0 443 0C418.3 0 393.7 0 369 0C344.3 0 319.7 0 295.2 0C270.7 0 246.3 0 221.8 0C197.3 0 172.7 0 148 0C123.3 0 98.7 0 74 0C49.3 0 24.7 0 12.3 0L0 0Z" fill="#5cb8b6"></path><path d="M0 27L12.3 26.7C24.7 26.3 49.3 25.7 74 28.2C98.7 30.7 123.3 36.3 148 37.2C172.7 38 197.3 34 221.8 34.3C246.3 34.7 270.7 39.3 295.2 42C319.7 44.7 344.3 45.3 369 44C393.7 42.7 418.3 39.3 443 35.7C467.7 32 492.3 28 517 29C541.7 30 566.3 36 591 38.7C615.7 41.3 640.3 40.7 664.8 40.3C689.3 40 713.7 40 738.2 41.2C762.7 42.3 787.3 44.7 812 43.5C836.7 42.3 861.3 37.7 886 34.2C910.7 30.7 935.3 28.3 947.7 27.2L960 26L960 0L947.7 0C935.3 0 910.7 0 886 0C861.3 0 836.7 0 812 0C787.3 0 762.7 0 738.2 0C713.7 0 689.3 0 664.8 0C640.3 0 615.7 0 591 0C566.3 0 541.7 0 517 0C492.3 0 467.7 0 443 0C418.3 0 393.7 0 369 0C344.3 0 319.7 0 295.2 0C270.7 0 246.3 0 221.8 0C197.3 0 172.7 0 148 0C123.3 0 98.7 0 74 0C49.3 0 24.7 0 12.3 0L0 0Z" fill="#46a5a6"></path><path d="M0 10L12.3 10.8C24.7 11.7 49.3 13.3 74 15.8C98.7 18.3 123.3 21.7 148 22.2C172.7 22.7 197.3 20.3 221.8 20.8C246.3 21.3 270.7 24.7 295.2 26C319.7 27.3 344.3 26.7 369 24.2C393.7 21.7 418.3 17.3 443 16.5C467.7 15.7 492.3 18.3 517 19C541.7 19.7 566.3 18.3 591 19.2C615.7 20 640.3 23 664.8 22C689.3 21 713.7 16 738.2 15.3C762.7 14.7 787.3 18.3 812 19.3C836.7 20.3 861.3 18.7 886 19.2C910.7 19.7 935.3 22.3 947.7 23.7L960 25L960 0L947.7 0C935.3 0 910.7 0 886 0C861.3 0 836.7 0 812 0C787.3 0 762.7 0 738.2 0C713.7 0 689.3 0 664.8 0C640.3 0 615.7 0 591 0C566.3 0 541.7 0 517 0C492.3 0 467.7 0 443 0C418.3 0 393.7 0 369 0C344.3 0 319.7 0 295.2 0C270.7 0 246.3 0 221.8 0C197.3 0 172.7 0 148 0C123.3 0 98.7 0 74 0C49.3 0 24.7 0 12.3 0L0 0Z" fill="#2f9296"></path></svg>