<svg id="visual" viewBox="0 0 300 960" width="300" height="960" xmlns="http://www.w3.org/2000/svg" xmlns:xlink="http://www.w3.org/1999/xlink" version="1.1"><rect x="0" y="0" width="300" height="960" fill="#DFF5F2"></rect><path d="M89 0L94.7 12.3C100.3 24.7 111.7 49.3 116 74C120.3 98.7 117.7 123.3 120.8 148C124 172.7 133 197.3 137 221.8C141 246.3 140 270.7 136.5 295.2C133 319.7 127 344.3 122.2 369C117.3 393.7 113.7 418.3 106.8 443C100 467.7 90 492.3 84.8 517C79.7 541.7 79.3 566.3 80.2 591C81 615.7 83 640.3 91.7 664.8C100.3 689.3 115.7 713.7 118 738.2C120.3 762.7 109.7 787.3 101.7 812C93.7 836.7 88.3 861.3 87.8 886C87.3 910.7 91.7 935.3 93.8 947.7L96 960L0 960L0 947.7C0 935.3 0 910.7 0 886C0 861.3 0 836.7 0 812C0 787.3 0 762.7 0 738.2C0 713.7 0 689.3 0 664.8C0 640.3 0 615.7 0 591C0 566.3 0 541.7 0 517C0 492.3 0 467.7 0 443C0 418.3 0 393.7 0 369C0 344.3 0 319.7 0 295.2C0 270.7 0 246.3 0 221.8C0 197.3 0 172.7 0 148C0 123.3 0 98.7 0 74C0 49.3 0 24.7 0 12.3L0 0Z" fill="#87dfd6"></path><path d="M126 0L119 12.3C112 24.7 98 49.3 93.7 74C89.3 98.7 94.7 123.3 98.3 148C102 172.7 104 197.3 107.5 221.8C111 246.3 116 270.7 111.8 295.2C107.7 319.7 94.3 344.3 92.8 369C91.3 393.7 101.7 418.3 106 443C110.3 467.7 108.7 492.3 106.2 517C103.7 541.7 100.3 566.3 102.8 591C105.3 615.7 113.7 640.3 111 664.8C108.3 689.3 94.7 713.7 95.2 738.2C95.7 762.7 110.3 787.3 111.2 812C112 836.7 99 861.3 96 886C93 910.7 100 935.3 103.5 947.7L107 960L0 960L0 947.7C0 935.3 0 910.7 0 886C0 861.3 0 836.7 0 812C0 787.3 0 762.7 0 738.2C0 713.7 0 689.3 0 664.8C0 640.3 0 615.7 0 591C0 566.3 0 541.7 0 517C0 492.3 0 467.7 0 443C0 418.3 0 393.7 0 369C0 344.3 0 319.7 0 295.2C0 270.7 0 246.3 0 221.8C0 197.3 0 172.7 0 148C0 123.3 0 98.7 0 74C0 49.3 0 24.7 0 12.3L0 0Z" fill="#76cec5"></path><path d="M79 0L79.2 12.3C79.3 24.7 79.7 49.3 80.5 74C81.3 98.7 82.7 123.3 86.8 148C91 172.7 98 197.3 96 221.8C94 246.3 83 270.7 77.5 295.2C72 319.7 72 344.3 69.7 369C67.3 393.7 62.7 418.3 62.8 443C63 467.7 68 492.3 75.7 517C83.3 541.7 93.7 566.3 93.2 591C92.7 615.7 81.3 640.3 75.2 664.8C69 689.3 68 713.7 65.7 738.2C63.3 762.7 59.7 787.3 66.7 812C73.7 836.7 91.3 861.3 94.7 886C98 910.7 87 935.3 81.5 947.7L76 960L0 960L0 947.7C0 935.3 0 910.7 0 886C0 861.3 0 836.7 0 812C0 787.3 0 762.7 0 738.2C0 713.7 0 689.3 0 664.8C0 640.3 0 615.7 0 591C0 566.3 0 541.7 0 517C0 492.3 0 467.7 0 443C0 418.3 0 393.7 0 369C0 344.3 0 319.7 0 295.2C0 270.7 0 246.3 0 221.8C0 197.3 0 172.7 0 148C0 123.3 0 98.7 0 74C0 49.3 0 24.7 0 12.3L0 0Z" fill="#66bdb5"></path><path d="M81 0L79.8 12.3C78.7 24.7 76.3 49.3 74 74C71.7 98.7 69.3 123.3 72 148C74.7 172.7 82.3 197.3 78.7 221.8C75 246.3 60 270.7 54.5 295.2C49 319.7 53 344.3 54.2 369C55.3 393.7 53.7 418.3 58.3 443C63 467.7 74 492.3 78.2 517C82.3 541.7 79.7 566.3 79.2 591C78.7 615.7 80.3 640.3 79.3 664.8C78.3 689.3 74.7 713.7 73 738.2C71.3 762.7 71.7 787.3 69 812C66.3 836.7 60.7 861.3 61.5 886C62.3 910.7 69.7 935.3 73.3 947.7L77 960L0 960L0 947.7C0 935.3 0 910.7 0 886C0 861.3 0 836.7 0 812C0 787.3 0 762.7 0 738.2C0 713.7 0 689.3 0 664.8C0 640.3 0 615.7 0 591C0 566.3 0 541.7 0 517C0 492.3 0 467.7 0 443C0 418.3 0 393.7 0 369C0 344.3 0 319.7 0 295.2C0 270.7 0 246.3 0 221.8C0 197.3 0 172.7 0 148C0 123.3 0 98.7 0 74C0 49.3 0 24.7 0 12.3L0 0Z" fill="#55ada5"></path><path d="M58 0L59.2 12.3C60.3 24.7 62.7 49.3 61.3 74C60 98.7 55 123.3 51.3 148C47.7 172.7 45.3 197.3 47.7 221.8C50 246.3 57 270.7 56.8 295.2C56.7 319.7 49.3 344.3 48.5 369C47.7 393.7 53.3 418.3 53 443C52.7 467.7 46.3 492.3 48.2 517C50 541.7 60 566.3 62.2 591C64.3 615.7 58.7 640.3 53 664.8C47.3 689.3 41.7 713.7 39 738.2C36.3 762.7 36.7 787.3 37.3 812C38 836.7 39 861.3 41.5 886C44 910.7 48 935.3 50 947.7L52 960L0 960L0 947.7C0 935.3 0 910.7 0 886C0 861.3 0 836.7 0 812C0 787.3 0 762.7 0 738.2C0 713.7 0 689.3 0 664.8C0 640.3 0 615.7 0 591C0 566.3 0 541.7 0 517C0 492.3 0 467.7 0 443C0 418.3 0 393.7 0 369C0 344.3 0 319.7 0 295.2C0 270.7 0 246.3 0 221.8C0 197.3 0 172.7 0 148C0 123.3 0 98.7 0 74C0 49.3 0 24.7 0 12.3L0 0Z" fill="#449d95"></path><path d="M51 0L50.5 12.3C50 24.7 49 49.3 46.8 74C44.7 98.7 41.3 123.3 38.3 148C35.3 172.7 32.7 197.3 34.2 221.8C35.7 246.3 41.3 270.7 41 295.2C40.7 319.7 34.3 344.3 35.2 369C36 393.7 44 418.3 45.8 443C47.7 467.7 43.3 492.3 40.7 517C38 541.7 37 566.3 37 591C37 615.7 38 640.3 37.2 664.8C36.3 689.3 33.7 713.7 35.8 738.2C38 762.7 45 787.3 44.8 812C44.7 836.7 37.3 861.3 35.5 886C33.7 910.7 37.3 935.3 39.2 947.7L41 960L0 960L0 947.7C0 935.3 0 910.7 0 886C0 861.3 0 836.7 0 812C0 787.3 0 762.7 0 738.2C0 713.7 0 689.3 0 664.8C0 640.3 0 615.7 0 591C0 566.3 0 541.7 0 517C0 492.3 0 467.7 0 443C0 418.3 0 393.7 0 369C0 344.3 0 319.7 0 295.2C0 270.7 0 246.3 0 221.8C0 197.3 0 172.7 0 148C0 123.3 0 98.7 0 74C0 49.3 0 24.7 0 12.3L0 0Z" fill="#318d85"></path><path d="M21 0L19.7 12.3C18.3 24.7 15.7 49.3 15.2 74C14.7 98.7 16.3 123.3 18.3 148C20.3 172.7 22.7 197.3 23.7 221.8C24.7 246.3 24.3 270.7 23.8 295.2C23.3 319.7 22.7 344.3 21.7 369C20.7 393.7 19.3 418.3 18 443C16.7 467.7 15.3 492.3 16.8 517C18.3 541.7 22.7 566.3 25 591C27.3 615.7 27.7 640.3 25.7 664.8C23.7 689.3 19.3 713.7 18.7 738.2C18 762.7 21 787.3 20.7 812C20.3 836.7 16.7 861.3 16 886C15.3 910.7 17.7 935.3 18.8 947.7L20 960L0 960L0 947.7C0 935.3 0 910.7 0 886C0 861.3 0 836.7 0 812C0 787.3 0 762.7 0 738.2C0 713.7 0 689.3 0 664.8C0 640.3 0 615.7 0 591C0 566.3 0 541.7 0 517C0 492.3 0 467.7 0 443C0 418.3 0 393.7 0 369C0 344.3 0 319.7 0 295.2C0 270.7 0 246.3 0 221.8C0 197.3 0 172.7 0 148C0 123.3 0 98.7 0 74C0 49.3 0 24.7 0 12.3L0 0Z" fill="#1c7d76"></path></svg>